# AST/ASF file generated using VICON BodyLanguage
# -----------------------------------------------
:version 1.10
:name VICON
:units
  mass 1.0
  length 0.45
  angle deg
:documentation
   .ast/.asf automatically generated from VICON data using
   VICON BodyBuilder and BodyLanguage model FoxedUp or BRILLIANT.MOD
:root
   order TX TY TZ RX RY RZ
   axis XYZ
   position 0 0 0  
   orientation 0 0 0 
:bonedata
  begin
     id 1 
     name lhipjoint
     direction 0.54267 -0.795011 0.271047 
     length 2.39899 
     axis 0 0 0  XYZ
  end
  begin
     id 2 
     name lfemur
     direction 0.34202 -0.939693 0  
     length 7.49701  
     axis 0 0 20  XYZ
    dof rx ry rz
    limits (-160.0 20.0)
           (-70.0 70.0)
           (-60.0 70.0)
  end
  begin
     id 3 
     name ltibia
     direction 0.34202 -0.939693 0   
     length 8.1668   
     axis 0 0 20   XYZ
    dof rx
    limits (-10.0 170.0)
  end
  begin
     id 4 
     name lfoot
     direction 0.0736283 -0.202292 0.976554   
     length 2.13544   
     axis -90 7.62852e-016 20   XYZ
    dof rx rz
    limits (-45.0 90.0)
           (-70.0 20.0)
  end
  begin
     id 5 
     name ltoes
     direction 1.53557e-011 -4.22024e-011 1   
     length 1.07411   
     axis -90 7.62852e-016 20   XYZ
    dof rx
    limits (-90.0 20.0)
  end
  begin
     id 6 
     name rhipjoint
     direction -0.538061 -0.797813 0.272002   
     length 2.39057  
     axis 0 0 0  XYZ 
  end
  begin
     id 7 
     name rfemur
     direction -0.34202 -0.939693 0   
     length 7.50152   
     axis 0 0 -20   XYZ
    dof rx ry rz
    limits (-160.0 20.0)
           (-70.0 70.0)
           (-70.0 60.0)
  end
  begin
     id 8 
     name rtibia
     direction -0.34202 -0.939693 0   
     length 8.05793   
     axis 0 0 -20   XYZ
    dof rx
    limits (-10.0 170.0)
 end
 begin
     id 9 
     name rfoot
     direction -0.0765195 -0.210236 0.974652   
     length 2.28698  
     axis -90 -7.62852e-016 -20   XYZ
    dof rx rz
    limits (-45.0 90.0)
           (-20.0 70.0)
  end
  begin
     id 10 
     name rtoes
     direction -1.53542e-011 -4.21847e-011 1   
     length 1.14762   
     axis -90 -7.62852e-016 -20   XYZ
    dof rx
    limits (-90.0 20.0)
  end
  begin
     id 11 
     name lowerback
     direction -0.0217239 0.996592 -0.0795765   
     length 2.08176   
     axis 0 0 0   XYZ
    dof rx ry rz
    limits (-20.0 45.0)
           (-30.0 30.0)
           (-30.0 30.0)
  end
  begin
     id 12 
     name upperback
     direction -0.00563773 0.999651 -0.0258155   
     length 2.08898   
     axis 0 0 0   XYZ
    dof rx ry rz
    limits (-20.0 45.0)
           (-30.0 30.0)
           (-30.0 30.0)
  end
  begin
     id 13 
     name thorax
     direction 0.0032706 0.999923 0.0119599   
     length 2.0968   
     axis 0 0 0   XYZ
    dof rx ry rz
    limits (-20.0 45.0)
           (-30.0 30.0)
           (-30.0 30.0)
  end
  begin
     id 14 
     name lowerneck
     direction -0.0285886 0.99568 0.0883427   
     length 1.81272   
     axis 0 0 0   XYZ
    dof rx ry rz
    limits (-20.0 45.0)
           (-30.0 30.0)
           (-30.0 30.0)
  end
  begin
     id 15 
     name upperneck
     direction 0.0807535 0.97985 -0.18268   
     length 1.82518   
     axis 0 0 0   XYZ
    dof rx ry rz
    limits (-20.0 45.0)
           (-30.0 30.0)
           (-30.0 30.0)
  end
  begin
     id 16
     name head
     direction 0.0236605 0.997053 -0.0729767  
     length 1.84443  
     axis 0 0 0   XYZ
    dof rx ry rz
    limits (-20.0 45.0)
           (-30.0 30.0)
           (-30.0 30.0)
  end
  begin
     id 17 
     name lclavicle
     direction 0.918986 0.39378 -0.0200683  
     length 3.27822  
     axis 0 0 0   XYZ
    dof ry rz
    limits (-20.0 10.0)
           (0.0 20.0)
  end
  begin
     id 18 
     name lhumerus
     direction 1 -4.4897e-011 2.09544e-027   
     length 5.5568   
     axis 180 -30 -90   XYZ
    dof rx ry rz
    limits (-60.0 90.0)
           (-90.0 90.0)
           (-90.0 90.0)
  end
  begin
     id 19
     name lradius
     direction 1 -4.48957e-011 -1.27696e-026   
     length 3.63979   
     axis 180 -30 -90   XYZ
    dof rx
    limits (-10.0 170.0)
  end
  begin
     id 20
     name lwrist
     direction 1 -4.49001e-011 -1.49001e-026   
     length 1.8199   
     axis 9.0955e-015 90 90   XYZ
    dof ry
    limits (-180.0 0.0)
 end
  begin
     id 21 
     name lhand
     direction 1 -4.48709e-011 -2.9758e-026   
     length 0.569419   
     axis 1.90115e-014 90 90   XYZ
    dof rx rz
    limits (-90.0 90.0)
           (-45.0 45.0)
  end
  begin
     id 22 
     name lfingers
     direction 1 -4.49175e-011 -5.96505e-026   
     length 0.45908   
     axis 3.80223e-014 90 90   XYZ
    dof rx
    limits (0.0 90.0)
  end
  begin
     id 23
     name lthumb
     direction 0.707107 -6.34864e-011 0.707107   
     length 0.65915   
     axis -90 45 -3.84942e-014   XYZ
    dof rx rz
    limits (-45.0 45.0)
           (-45.0 45.0)
  end
  begin
     id 24 
     name rclavicle
     direction -0.911913 0.396426 -0.106115   
     length 3.46301  
     axis 0 0 0   XYZ 
    dof ry rz
    limits (-10.0 20.0)
           (-20.0 0.0)
  end
  begin
     id 25 
     name rhumerus
     direction -1 -4.48965e-011 7.78516e-028  
     length 5.34339   
     axis 180 30 90   XYZ
    dof rx ry rz
    limits (-90.0 60.0)
           (-90.0 90.0)
           (-90.0 90.0)
  end
  begin
     id 26 
     name rradius
     direction -1 -4.48948e-011 -5.79823e-027   
     length 3.65101   
     axis 180 30 90   XYZ
    dof rx
    limits (-10.0 170.0)
  end
  begin
     id 27 
     name rwrist
     direction -1 -4.48995e-011 -1.48996e-026   
     length 1.8255   
     axis 9.0955e-015 -90 -90   XYZ
    dof ry
    limits (-180.0 0.0)
  end
  begin
     id 28
     name rhand
     direction -1 -4.48957e-011 -2.97937e-026   
     length 0.694249   
     axis 1.90115e-014 -90 -90   XYZ
    dof rx rz
    limits (-90.0 90.0)
           (-45.0 45.0)
  end
  begin
     id 29
     name rfingers
     direction -1 -4.4898e-011 -5.95943e-026   
     length 0.559721   
     axis 3.80223e-014 -90 -90   XYZ
    dof rx
    limits (0.0 90.0)
  end
  begin
     id 30
     name rthumb
     direction -0.707107 -6.34969e-011 0.707107   
     length 0.803651   
     axis -90 -45 3.84942e-014   XYZ
    dof rx rz
    limits (-45.0 45.0)
           (-45.0 45.0)
  end
:hierarchy
  begin
    root lhipjoint rhipjoint lowerback
    lhipjoint lfemur
    lfemur ltibia
    ltibia lfoot
    lfoot ltoes
    rhipjoint rfemur
    rfemur rtibia
    rtibia rfoot
    rfoot rtoes
    lowerback upperback
    upperback thorax
    thorax lowerneck lclavicle rclavicle
    lowerneck upperneck
    upperneck head
    lclavicle lhumerus
    lhumerus lradius
    lradius lwrist
    lwrist lhand lthumb
    lhand lfingers
    rclavicle rhumerus
    rhumerus rradius
    rradius rwrist
    rwrist rhand rthumb
    rhand rfingers
  end

#!OML:ASF H:\Terrain\Walking\May29\JustinRory\rory.ASF
:FULLY-SPECIFIED
:DEGREES
82
root 12.3048 18.2299 -18.3085 4.57641 -67.6507 -0.786741
lowerback -3.54405 1.94619 1.08794
upperback -0.243168 2.52106 1.17869
thorax 1.72945 1.25928 0.724674
lowerneck -4.92003 8.28892 5.67522
upperneck 17.1155 12.3052 -10.3004
head 7.02492 5.45368 -3.2559
rclavicle -2.08351e-014 -1.98785e-015
rhumerus -41.419 -19.8665 -68.4523
rradius 28.0518
rwrist 7.04881
rhand -15.9084 31.1104
rfingers 7.12502
rthumb 10.2885 1.38205
lclavicle -2.08351e-014 -1.98785e-015
lhumerus -36.4221 10.0642 78.4903
lradius 28.1642
lwrist -3.3547
lhand -25.2512 16.8675
lfingers 7.12502
lthumb 1.26899 46.8435
rfemur -2.66678 13.3041 19.4973
rtibia 14.7791
rfoot -8.05694 -22.9927
rtoes 3.18764
lfemur -5.03843 -8.01488 -15.2257
ltibia 20.4751
lfoot -21.1191 13.4974
ltoes -2.868
83
root 12.3055 18.2315 -18.3105 5.41192 -67.3319 -1.66722
lowerback -3.51749 1.78147 1.30754
upperback -0.261891 2.2898 1.31391
thorax 1.69935 1.14433 0.727625
lowerneck -5.43782 7.92526 5.43325
upperneck 17.2842 11.8035 -10.134
head 7.10182 5.18783 -3.1922
rclavicle -3.54458e-014 -8.34896e-015
rhumerus -41.2697 -19.6549 -68.5554
rradius 28.0225
rwrist 6.7703
rhand -15.5124 30.8849
rfingers 7.12502
rthumb 10.6705 1.17586
lclavicle -3.54458e-014 -8.34896e-015
lhumerus -36.3702 9.77819 78.6395
lradius 28.1812
lwrist -2.91457
lhand -25.3638 17.4161
lfingers 7.12502
lthumb 1.16024 47.3927
rfemur -2.66509 13.1589 19.9148
rtibia 14.798
rfoot -8.23584 -23.1189
rtoes 3.72974
lfemur -5.16108 -7.65151 -14.7204
ltibia 20.4734
lfoot -20.8817 12.7464
ltoes -2.09398
84
root 12.312 18.2332 -18.3156 4.6172 -67.4876 -0.894491
lowerback -3.28199 1.68107 0.862038
upperback -0.295979 2.18145 1.22506
thorax 1.51948 1.08809 0.871463
lowerneck -5.66725 7.62175 5.39254
upperneck 17.3383 11.3696 -10.0384
head 7.11426 4.97546 -3.18925
rclavicle -4.21796e-014 -4.37326e-015
rhumerus -41.1539 -19.4486 -68.7486
rradius 27.9567
rwrist 6.8174
rhand -15.8827 30.3986
rfingers 7.12502
rthumb 10.3133 0.671433
lclavicle -4.21796e-014 -4.37326e-015
lhumerus -36.5103 9.83272 78.4458
lradius 28.3033
lwrist -2.86406
lhand -25.7035 17.3653
lfingers 7.12502
lthumb 0.832084 47.3434
rfemur -2.71291 13.3973 19.6022
rtibia 15.0232
rfoot -8.35627 -23.1703
rtoes 3.80021
lfemur -4.96794 -7.70506 -15.0726
ltibia 20.2925
lfoot -20.9064 12.8891
ltoes -1.87718
85
root 12.3103 18.2321 -18.3149 3.99733 -67.5997 -0.215001
lowerback -3.29076 1.63147 0.527911
upperback -0.32516 2.13012 1.14197
thorax 1.4858 1.06109 0.970458
lowerneck -5.8937 7.23752 4.98546
upperneck 17.4216 10.8232 -9.68478
head 7.09204 4.70534 -3.0553
rclavicle -5.99584e-014 -2.38542e-015
rhumerus -41.0937 -19.3759 -68.8406
rradius 27.8723
rwrist 7.02161
rhand -17.1942 29.3526
rfingers 7.12502
rthumb 9.04798 -0.433372
lclavicle -5.99584e-014 -2.38542e-015
lhumerus -36.6124 9.58095 78.4368
lradius 28.4118
lwrist -2.52287
lhand -26.1666 16.7159
lfingers 7.12502
lthumb 0.384845 46.6953
rfemur -2.76954 13.5005 19.2895
rtibia 15.1176
rfoot -8.60323 -23.1172
rtoes 4.6471
lfemur -4.88732 -8.01869 -15.4219
ltibia 20.2219
lfoot -20.9619 13.3315
ltoes -2.15221
86
root 12.3074 18.2329 -18.3119 3.95261 -67.6071 -0.160861
lowerback -3.3223 1.63884 0.514309
upperback -0.324661 2.14025 1.13132
thorax 1.50376 1.06608 0.96865
lowerneck -6.48229 6.80987 4.20383
upperneck 17.7986 10.2327 -9.03538
head 7.19555 4.3934 -2.7559
rclavicle 1.60394e-014 3.57812e-015
rhumerus -40.9991 -19.522 -68.7708
rradius 27.6802
rwrist 7.23644
rhand -17.8887 29.167
rfingers 7.12502
rthumb 8.37775 -0.646857
lclavicle 1.60394e-014 3.57812e-015
lhumerus -36.5117 9.5727 78.4527
lradius 28.2072
lwrist -2.47049
lhand -26.1268 16.6621
lfingers 7.12502
lthumb 0.423231 46.6414
rfemur -2.84773 13.55 19.2555
rtibia 15.2968
rfoot -9.0811 -23.1459
rtoes 6.03538
lfemur -4.81112 -8.05995 -15.4677
ltibia 20.0861
lfoot -20.7961 13.6132
ltoes -2.43937
